<?xml version="1.0" encoding="utf-8"?>
<!-- Generator: Adobe Illustrator 23.1.0, SVG Export Plug-In . SVG Version: 6.00 Build 0)  -->
<svg version="1.1" id="Layer_1" xmlns="http://www.w3.org/2000/svg" xmlns:xlink="http://www.w3.org/1999/xlink" x="0px" y="0px"
	 viewBox="0 0 2350 2314.8" style="enable-background:new 0 0 2350 2314.8;" xml:space="preserve">
<style type="text/css">
	.st0{fill:#FFFFFF;stroke:#000000;stroke-miterlimit:10;}
</style>
<path class="st0" d="M1175,0.1C525.8,0.1,0,525.9,0,1175.1c0,552.2,378.9,1010.5,890.1,1139.7c-5.9-14.7-8.8-35.3-8.8-55.8v-199.8
	H734.4c-79.3,0-152.8-35.2-185.1-99.9c-38.2-70.5-44.1-179.2-141-246.8c-29.4-23.5-5.9-47,26.4-44.1
	c61.7,17.6,111.6,58.8,158.6,120.4c47,61.7,67.6,76.4,155.7,76.4c41.1,0,105.7-2.9,164.5-11.8c32.3-82.3,88.1-155.7,155.7-190.9
	c-393.6-47-581.6-240.9-581.6-505.3c0-114.6,49.9-223.3,132.2-317.3c-26.4-91.1-61.7-279.1,11.8-352.5
	c176.3,0,282,114.6,308.4,143.9c88.1-29.4,185.1-47,284.9-47c102.8,0,196.8,17.6,284.9,47c26.4-29.4,132.2-143.9,308.4-143.9
	c70.5,70.5,38.2,261.4,8.8,352.5c82.3,91.1,129.3,202.7,129.3,317.3c0,264.4-185.1,458.3-575.7,499.4
	c108.7,55.8,185.1,214.4,185.1,331.9v267.6c0,8.8-2.9,17.6-2.9,26.4C2021,2123.9,2350,1689.2,2350,1175.1
	C2350,525.9,1824.2,0.1,1175,0.1L1175,0.1z"/>
</svg>
